HIERARCHY
ROOT hip
{
	OFFSET 0.000000 0.000000 0.000000 
	CHANNELS 6 Xposition Yposition Zposition Xrotation Zrotation Yrotation
	JOINT abdomen
	{
		OFFSET 0.000000 3.402643 0.000000 
		CHANNELS 3 Xrotation Zrotation Yrotation
		JOINT chest
		{
			OFFSET 0.000000 8.438565 -0.680529 
			CHANNELS 3 Xrotation Zrotation Yrotation
			JOINT neck
			{
				OFFSET 0.000000 10.207942 -0.272212 
				CHANNELS 3 Xrotation Zrotation Yrotation
				JOINT head
				{
					OFFSET 0.000000 3.130431 0.000000 
					CHANNELS 3 Xrotation Zrotation Yrotation
					End Site
					{
						OFFSET 0.000000 3.130435 0.000000 
					}
				}
			}
			JOINT lCollar
			{
				OFFSET 3.470700 6.669187 -0.816635 
				CHANNELS 3 Yrotation Zrotation Xrotation
				JOINT lShldr
				{
					OFFSET 3.198488 0.000000 0.000000 
					CHANNELS 3 Zrotation Yrotation Xrotation
					JOINT lForeArm
					{
						OFFSET 10.139888 0.000000 0.000000 
						CHANNELS 3 Yrotation Zrotation Xrotation
						JOINT lHand
						{
							OFFSET 8.370511 0.000000 0.000000 
							CHANNELS 3 Zrotation Yrotation Xrotation
							End Site
							{
								OFFSET 4.083176 0.000000 0.000000 
							}
						}
					}
				}
			}
			JOINT rCollar
			{
				OFFSET -3.470700 6.669187 -0.816635 
				CHANNELS 3 Yrotation Zrotation Xrotation
				JOINT rShldr
				{
					OFFSET -3.198488 0.000000 0.000000 
					CHANNELS 3 Zrotation Yrotation Xrotation
					JOINT rForeArm
					{
						OFFSET -10.139888 0.000000 0.000000 
						CHANNELS 3 Yrotation Zrotation Xrotation
						JOINT rHand
						{
							OFFSET -8.370511 0.000000 0.000000 
							CHANNELS 3 Zrotation Yrotation Xrotation
							End Site
							{
								OFFSET -4.083176 0.000000 0.000000 
							}
						}
					}
				}
			}
		}
	}
	JOINT lThigh
	{
		OFFSET 5.308129 -1.633274 1.361059 
		CHANNELS 3 Xrotation Zrotation Yrotation
		JOINT lShin
		{
			OFFSET -2.041588 -20.007561 0.000000 
			CHANNELS 3 Xrotation Zrotation Yrotation
			JOINT lFoot
			{
				OFFSET 0.000000 -19.190928 -1.224953 
				CHANNELS 3 Xrotation Yrotation Zrotation
				End Site
				{
					OFFSET 0.000000 -2.449906 4.627600 
				}
			}
		}
	}
	JOINT rThigh
	{
		OFFSET -5.308129 -1.633274 1.361059 
		CHANNELS 3 Xrotation Zrotation Yrotation
		JOINT rShin
		{
			OFFSET 2.041588 -20.007561 0.000000 
			CHANNELS 3 Xrotation Zrotation Yrotation
			JOINT rFoot
			{
				OFFSET 0.000000 -19.190928 -1.224953 
				CHANNELS 3 Xrotation Yrotation Zrotation
				End Site
				{
					OFFSET 0.000000 -2.449906 4.627600 
				}
			}
		}
	}
}
MOTION
Frames: 15
Frame Time: 0.011111
27.079546 52.387402 29.307539 175.924210 -179.744965 -3.163727 5.208358 -2.416547 3.097612 -3.189115 0.548898 0.923351 -11.556514 -4.099882 -2.262385 18.793783 4.929407 -4.838183 1.452834 -1.250150 0.768655 -66.218109 -28.027861 24.137516 -78.915810 8.612730 20.255058 6.992188 16.005859 -27.526604 -6.408587 0.914528 1.823621 67.735977 25.804033 27.283243 65.234680 -10.198817 13.723710 -7.001954 -15.996095 43.105473 -7.141497 7.268924 -2.297492 26.087027 -5.282994 -1.884491 -22.674707 0.663255 0.409058 -6.752931 -5.827127 9.730186 25.840082 5.269052 1.861976 -5.293888 0.804349 0.743562 
27.036968 52.376537 29.344378 175.895554 -179.938110 -3.314631 5.180350 -2.057586 3.129909 -3.081695 0.517870 0.924086 -11.704148 -4.122476 -2.188600 18.992355 4.827390 -4.697236 1.452834 -1.250150 0.768655 -65.243828 -28.971172 24.226934 -79.147881 8.542626 20.367630 6.992188 16.005859 -27.878166 -6.408587 0.914528 1.823621 66.203796 26.529818 27.773432 65.964035 -10.211351 14.051609 -7.001954 -15.996095 43.437500 -7.370182 7.429013 -2.318676 26.324526 -5.293340 -1.896152 -22.808022 0.763855 0.468988 -6.897872 -5.699349 9.533271 25.878883 5.273423 1.834390 -5.293637 0.805543 0.744123 
27.048141 52.377441 29.375181 175.982269 179.901947 -3.061269 5.348235 -1.912403 2.861990 -3.110998 0.606962 0.846532 -11.803302 -4.198685 -2.146527 19.198446 4.879152 -4.643278 1.452834 -1.250150 0.768655 -64.093140 -30.003218 24.309948 -79.300690 8.498288 20.452196 6.992188 16.005859 -28.083242 -6.408587 0.914528 1.823621 64.638756 27.157370 28.402269 66.865288 -10.215183 14.468089 -7.001954 -15.996095 43.720703 -7.411179 7.596796 -2.457928 26.326488 -5.283882 -1.913440 -22.533813 0.787165 0.457928 -6.731792 -5.474818 9.807493 25.949112 5.271985 1.847355 -5.293818 0.800709 0.752631 
27.062336 52.387104 29.385748 176.000702 179.763565 -2.777142 5.328978 -1.775737 2.649333 -3.120754 0.607735 0.778072 -11.715015 -4.187805 -2.164499 19.305656 4.965041 -4.671971 1.452834 -1.250150 0.768655 -62.725636 -30.997164 24.493822 -79.492424 8.439270 20.550673 6.992188 16.005859 -28.073477 -6.408587 0.914528 1.823621 63.160515 27.775763 28.746128 67.638496 -10.209397 14.824020 -7.001954 -15.996095 43.720703 -7.427835 7.760127 -2.625589 26.247459 -5.279234 -1.899532 -22.381054 0.694738 0.380728 -6.632643 -5.288555 9.920780 26.089705 5.268279 1.871365 -21.220333 -6.659941 -2.269073 
27.042707 52.404617 29.367931 175.991272 179.896835 -2.855994 5.141975 -1.925390 2.613132 -3.032855 0.557821 0.768709 -11.646035 -4.117997 -2.133454 19.395859 5.020153 -4.590751 1.452834 -1.250150 0.768655 -61.258671 -31.903414 24.515440 -79.763161 8.352195 20.685047 6.992188 16.005859 -28.229727 -6.408587 0.914528 1.823621 61.675739 28.578150 28.939713 68.354912 -10.188234 15.147775 -7.001954 -15.996095 44.111332 -7.230061 7.581969 -2.545459 26.018038 -5.278418 -1.880740 -22.486300 0.754965 0.427681 -6.763864 -5.495948 9.721682 26.279217 5.268917 1.888561 -21.221460 -6.363872 -2.168387 
27.023682 52.423943 29.352533 175.972122 -179.881027 -2.938369 4.924976 -2.191919 2.608348 -3.071897 0.470360 0.777202 -11.439635 -3.989583 -2.092833 19.556473 5.079481 -4.472176 1.452834 -1.250150 0.768655 -59.622578 -32.605042 24.638334 -80.143677 8.226967 20.889980 6.992188 16.005859 -28.376213 -6.408587 0.914528 1.823621 60.152130 29.106169 29.097158 69.276741 -10.153977 15.580227 -7.001954 -15.996095 44.628906 -7.043643 7.297962 -2.450433 25.778263 -5.279187 -1.861077 -22.465021 1.045055 0.529584 -6.938677 -5.758986 9.635833 26.419062 5.267733 1.894535 -21.206661 -6.266500 -2.137593 
27.016130 52.432098 29.358877 176.079102 -179.912018 -2.852235 4.953864 -2.137474 2.446100 -3.247647 0.414491 0.726513 -11.263906 -3.920084 -1.988147 19.757097 5.030996 -4.283553 1.452834 -1.250150 0.768655 -58.123352 -33.286037 24.542164 -80.533051 8.094484 21.095415 6.992188 16.005859 -28.551994 -6.408587 0.914528 1.823621 58.530090 29.706470 29.236544 69.981308 -10.112506 15.907569 -7.001954 -15.996095 44.414066 -6.860912 7.271285 -2.605112 25.628695 -5.278680 -1.864937 -22.550278 1.095392 0.571028 -6.844388 -5.702392 9.550509 26.461834 5.254190 1.931879 -21.099724 -6.553543 -2.202628 
27.026398 52.430286 29.366726 176.176956 -179.959091 -2.953072 5.004743 -2.154634 2.275061 -3.237929 0.610024 0.679174 -11.403653 -4.045285 -1.835037 20.105314 5.028377 -4.008747 1.452834 -1.250150 0.768655 -56.840935 -34.131695 24.111282 -80.908989 7.958857 21.299732 6.992188 16.005859 -28.718012 -6.408587 0.914528 1.823621 56.742939 30.676474 29.322845 70.601181 -10.071072 16.194983 -7.001954 -15.996095 44.218750 -6.712070 7.405427 -2.390049 25.568739 -5.278419 -1.852833 -22.467520 0.729894 0.424019 -6.477295 -5.620628 9.640047 26.258287 5.273129 1.869287 -20.985508 -6.710204 -2.227162 
27.013416 52.423038 29.373068 176.157349 179.971756 -2.928402 4.908735 -2.061911 2.109027 -3.101239 0.765204 0.623542 -11.864124 -4.224162 -1.967746 20.874117 4.974929 -3.585063 1.452834 -1.250150 0.768655 -55.490345 -35.172665 23.748211 -81.290375 7.812107 21.493837 6.992188 16.005859 -28.874256 -6.408587 0.914528 1.823621 54.736153 31.538372 29.339876 71.528961 -9.993645 16.643223 -7.001954 -15.996095 44.628906 -6.781054 7.513432 -2.301956 25.588690 -5.278504 -1.853620 -22.203836 0.740729 0.383765 -6.161763 -5.575963 9.596064 25.830013 5.269004 1.850943 -21.010654 -6.727261 -2.240628 
26.988955 52.424850 29.377899 176.157059 179.907394 -2.844631 4.829940 -1.915816 1.918527 -3.218412 0.708252 0.572705 -12.070523 -4.261222 -1.905561 21.581997 5.042049 -3.415552 1.452834 -1.250150 0.768655 -53.823101 -36.028984 23.376829 -81.584206 7.697992 21.659050 6.992188 16.005859 -29.069572 -6.408587 0.914528 1.823621 52.832546 32.124325 29.269192 72.496452 -9.892847 17.096983 -7.001954 -15.996095 45.029297 -6.819880 7.532743 -2.412667 25.617624 -5.282813 -1.836266 -22.188643 0.886718 0.445923 -6.002201 -5.603059 9.542903 25.258799 5.277973 1.801011 -20.870684 -6.755802 -2.226207 
26.974760 52.447800 29.382729 176.117828 179.953430 -2.773189 4.642998 -2.000576 1.830956 -3.384405 0.612388 0.540895 -11.785075 -4.133056 -1.932038 21.672523 5.137481 -3.365692 1.452834 -1.250150 0.768655 -51.957226 -36.709724 23.023186 -81.944771 7.553097 21.859806 6.992188 16.005859 -29.284416 -6.408587 0.914528 1.823621 51.241337 32.707005 28.845324 73.288788 -9.789959 17.475058 -7.001954 -15.996095 45.156250 -6.825507 7.450535 -2.573775 25.547686 -5.282495 -1.823763 -22.273268 0.966095 0.481539 -5.906047 -5.769973 9.351874 24.660963 5.267905 1.765259 -20.527912 -6.723248 -2.133982 
26.969322 52.474373 29.389071 175.990891 -179.965225 -2.728864 4.291946 -2.199051 1.818743 -3.286782 0.748181 0.542813 -11.528716 -4.003962 -1.994754 21.444920 5.010059 -3.467660 1.452834 -1.250150 0.768655 -50.367035 -37.554955 22.593616 -82.464989 7.330968 22.143032 6.992188 16.005859 -29.704338 -6.408587 0.914528 1.823621 49.466995 33.364735 28.255636 74.154282 -9.665244 17.891039 -7.001954 -15.996095 45.253902 -6.834166 7.351848 -2.744727 25.327784 -5.283302 -1.814628 -22.250957 1.027755 0.505941 -5.818041 -5.935855 9.092578 24.160152 5.269258 1.715567 -20.200563 -6.627876 -2.048095 
26.962078 52.492191 29.398130 176.010056 -179.856049 -2.623314 4.195076 -2.375338 1.701827 -3.218453 0.913763 0.515670 -11.537091 -3.870165 -1.971550 21.375153 4.724075 -3.478387 1.452834 -1.250150 0.768655 -48.884510 -38.428692 22.067213 -82.968246 7.100553 22.423363 6.992188 16.005859 -29.987539 -6.408587 0.914528 1.823621 47.518494 33.968395 27.749298 75.235596 -9.482802 18.418478 -7.001954 -15.996095 45.527340 -6.659040 7.235265 -2.865817 24.997839 -5.283705 -1.791454 -22.170551 1.071355 0.530224 -5.637004 -6.077995 8.994622 23.804426 5.292128 1.657511 -20.012878 -6.789287 -2.046540 
26.947582 52.516949 29.402964 176.087708 -179.770859 -2.490197 4.263275 -2.470243 1.525492 -3.335658 0.954144 0.465190 -11.574673 -3.716265 -1.940829 21.453596 4.431528 -3.432748 1.452834 -1.250150 0.768655 -47.311855 -39.146015 21.442354 -83.448753 6.870486 22.701839 6.992188 16.005859 -30.153553 -6.408587 0.914528 1.823621 45.612335 34.525345 27.126623 76.269646 -9.282237 18.930420 -7.001954 -15.996095 45.820309 -6.393865 7.106782 -2.953011 24.635759 -5.293263 -1.759402 -21.974434 1.276893 0.579746 -5.428586 -6.210024 8.961920 23.517027 5.277422 1.653155 -19.934000 -6.975515 -2.102539 
26.933992 52.542622 29.397827 176.107132 -179.763947 -2.460383 4.233398 -2.442744 1.460854 -3.589573 0.897622 0.441361 -11.417069 -3.624809 -1.968310 21.589428 4.261977 -3.449012 1.452834 -1.250150 0.768655 -45.688229 -39.618843 20.729158 -84.033508 6.571481 23.055557 6.992188 16.005859 -30.544180 -6.408587 0.914528 1.823621 43.887184 34.941322 26.280663 77.190796 -9.075256 19.390377 -7.001954 -15.996095 45.791019 -6.156735 7.055066 -2.968023 24.268242 -5.279998 -1.742431 -21.806353 1.319890 0.557607 -5.223336 -6.219596 9.197878 23.216068 5.277785 1.631253 -19.967047 -7.137865 -2.139818 
